<svg xmlns="http://www.w3.org/2000/svg" xmlns:xlink="http://www.w3.org/1999/xlink" preserveAspectRatio="xMidYMid" width="22" height="27" viewBox="0 0 27 32">
  <defs>
    <style>
      .cls-1 {
        fill: #10213d;
        fill-rule: evenodd;
      }
    </style>
  </defs>
  <path d="M25.000,32.000 L2.000,32.000 C0.897,32.000 0.000,31.102 0.000,30.000 L0.000,12.000 C0.000,10.897 0.897,10.000 2.000,10.000 L7.500,10.000 C8.329,10.000 9.000,10.672 9.000,11.500 C9.000,12.328 8.329,13.000 7.500,13.000 L3.000,13.000 L3.000,29.000 L24.000,29.000 L24.000,13.000 L19.500,13.000 C18.671,13.000 18.000,12.328 18.000,11.500 C18.000,10.672 18.671,10.000 19.500,10.000 L25.000,10.000 C26.103,10.000 27.000,10.897 27.000,12.000 L27.000,30.000 C27.000,31.102 26.103,32.000 25.000,32.000 ZM18.500,8.000 C18.086,8.000 17.711,7.832 17.440,7.560 L15.000,5.121 L15.000,21.500 C15.000,22.328 14.329,23.000 13.500,23.000 C12.671,23.000 12.000,22.328 12.000,21.500 L12.000,5.121 L9.561,7.560 C9.289,7.832 8.914,8.000 8.500,8.000 C7.671,8.000 7.000,7.328 7.000,6.500 C7.000,6.086 7.168,5.711 7.440,5.439 L12.440,0.439 C12.711,0.168 13.086,-0.000 13.500,-0.000 C13.914,-0.000 14.289,0.168 14.561,0.439 L19.560,5.439 C19.832,5.711 20.000,6.086 20.000,6.500 C20.000,7.328 19.329,8.000 18.500,8.000 Z" class="cls-1"/>
</svg>
